<svg xmlns="http://www.w3.org/2000/svg" viewBox="0 0 676 108"><defs><style>.cls-1{fill:#b3b6ba}</style></defs><title>ic-code-active</title><path class="cls-1" d="M0 0h8v108H0zm52 0h8v108h-8zm17 0h17v108H69zm127 0h17v108h-17zm131 0h17v108h-17zm130 0h17v108h-17zm206 0h13v108h-13zm-79 0h17v108h-17zM275 0h25v108h-25zm130 0h25v108h-25zm127 0h25v108h-25zM96 0h8v108h-8zm17 0h8v108h-8zm109 0h8v108h-8zm18 0h8v108h-8zm70 0h8v108h-8zm130 0h8v108h-8zM258 0h8v108h-8zm95 0h8v108h-8zm131 0h8v108h-8zm82 0h8v108h-8zm44 0h8v108h-8zm18 0h8v108h-8zm17 0h8v108h-8zM501 0h8v108h-8zm13 0h8v108h-8zM370 0h8v108h-8zm18 0h8v108h-8zM126 0h8v108h-8zm52 0h8v108h-8zM17 0h25v108H17zm127 0h25v108h-25z" id="Layer_2" data-name="Layer 2"/></svg>