<svg xmlns="http://www.w3.org/2000/svg" viewBox="0 0 48 58"><defs><style>.cls-1{fill:#b3b6ba}</style></defs><title>ic-train</title><path class="cls-1" d="M24 0C10.8 0 0 1.52 0 12.21v29a10.73 10.73 0 0 0 10.5 10.7L6 56.48V58h36v-1.52l-4.5-4.58A10.73 10.73 0 0 0 48 41.22v-29C48 1.52 37.2 0 24 0zM10.5 45.79a4.58 4.58 0 0 1 0-9.15 4.58 4.58 0 0 1 0 9.15zM21 27.47H6V12.21h15zm16.5 18.32a4.58 4.58 0 1 1 4.5-4.57 4.65 4.65 0 0 1-4.5 4.58zM42 27.47H27V12.21h15zm0 0" id="Layer_2" data-name="Layer 2"/></svg>