

<svg version="1.0" xmlns="http://www.w3.org/2000/svg" width="100px"
 viewBox="0 0 2112.000000 2112.000000"
 preserveAspectRatio="xMidYMid meet">
<metadata>
Created by potrace 1.11, written by Peter Selinger 2001-2013
</metadata>
<g transform="translate(0.000000,2112.000000) scale(0.100000,-0.100000)"
fill="#ffffff" stroke="none">
<path d="M4427 15514 c-1 -1 -29 -5 -62 -8 -62 -7 -185 -24 -220 -31 -11 -2
-33 -7 -50 -10 -16 -3 -55 -11 -85 -17 -30 -6 -64 -12 -75 -14 -11 -2 -47 -10
-80 -19 -33 -8 -72 -17 -88 -20 -15 -2 -32 -7 -37 -10 -6 -4 -23 -9 -38 -11
-15 -3 -40 -9 -57 -14 -276 -87 -348 -111 -390 -129 -11 -5 -36 -14 -55 -21
-19 -7 -51 -19 -70 -28 -19 -8 -41 -15 -47 -15 -7 0 -13 -4 -13 -9 0 -4 -5 -8
-11 -8 -10 0 -33 -10 -169 -72 -105 -48 -305 -150 -355 -181 -68 -42 -101 -61
-105 -62 -3 0 -24 -13 -47 -28 -24 -15 -45 -27 -48 -27 -3 0 -15 -9 -27 -20
-12 -11 -28 -20 -35 -20 -7 0 -13 -4 -13 -10 0 -5 -6 -10 -14 -10 -8 0 -16 -3
-18 -7 -3 -9 -64 -53 -72 -53 -8 0 -162 -114 -251 -185 -27 -23 -60 -48 -73
-56 -20 -15 -138 -117 -168 -146 -7 -7 -18 -13 -24 -13 -6 0 -8 -4 -5 -10 3
-5 1 -10 -4 -10 -13 0 -272 -259 -366 -365 -38 -44 -72 -82 -75 -85 -3 -3 -23
-27 -45 -55 -21 -27 -44 -55 -49 -60 -6 -6 -15 -18 -21 -26 -5 -9 -44 -61 -85
-115 -41 -54 -77 -103 -80 -109 -12 -25 -106 -160 -112 -163 -5 -2 -8 -7 -8
-11 0 -4 -32 -61 -72 -127 -39 -65 -90 -155 -113 -199 -23 -44 -53 -100 -66
-125 -13 -25 -23 -47 -24 -50 0 -3 -9 -19 -18 -37 -9 -18 -17 -39 -17 -47 0
-8 -5 -16 -11 -18 -5 -2 -11 -10 -13 -18 -1 -8 -12 -36 -24 -62 -12 -26 -22
-50 -22 -53 0 -3 -11 -30 -23 -58 -13 -29 -35 -83 -50 -122 -36 -98 -40 -109
-42 -120 -2 -5 -15 -41 -29 -80 -15 -38 -27 -71 -26 -72 0 -2 -1 -5 -1 -8 -1
-3 -2 -8 -3 -12 -1 -5 -10 -35 -21 -68 -10 -33 -19 -64 -21 -70 -1 -5 -12 -48
-24 -95 -28 -109 -31 -122 -34 -140 -2 -8 -6 -28 -9 -45 -4 -16 -9 -40 -12
-53 -2 -13 -6 -31 -9 -40 -3 -9 -7 -33 -10 -52 -3 -19 -8 -46 -11 -60 -3 -14
-7 -38 -10 -55 -2 -16 -7 -48 -10 -70 -13 -81 -14 -91 -20 -150 -3 -33 -8 -71
-10 -85 -26 -160 -26 -792 0 -1005 4 -27 8 -63 10 -80 7 -64 16 -132 25 -180
5 -27 12 -66 14 -85 9 -57 16 -92 27 -140 5 -25 11 -56 13 -70 2 -14 6 -32 9
-40 5 -13 22 -84 31 -131 2 -8 5 -21 9 -29 3 -8 11 -37 17 -65 7 -27 19 -70
27 -95 8 -25 16 -49 17 -55 11 -48 113 -337 143 -405 11 -25 30 -67 42 -95 12
-27 22 -54 22 -60 0 -5 8 -18 16 -27 9 -10 14 -18 10 -18 -8 0 144 -304 156
-312 7 -4 9 -8 5 -8 -4 0 6 -22 22 -49 17 -26 30 -53 30 -59 0 -6 4 -12 8 -14
4 -1 21 -25 36 -53 42 -74 192 -304 205 -315 13 -10 51 -70 51 -79 0 -5 3 -11
8 -13 10 -4 92 -104 92 -112 0 -3 8 -14 18 -25 9 -10 33 -38 52 -61 19 -24 44
-54 55 -66 11 -12 43 -49 70 -80 70 -81 285 -295 379 -379 44 -38 88 -78 98
-88 10 -9 20 -17 23 -17 2 0 15 -10 27 -22 13 -13 39 -34 58 -48 35 -26 91
-71 100 -80 3 -3 25 -19 50 -35 25 -16 49 -36 53 -42 4 -7 14 -13 22 -13 7 0
15 -4 17 -8 4 -12 185 -132 198 -132 5 0 10 -4 10 -8 0 -5 12 -15 27 -23 16
-8 30 -16 33 -19 3 -3 16 -11 30 -18 14 -7 45 -25 70 -40 73 -46 332 -184 350
-187 3 -1 43 -19 90 -42 70 -33 220 -97 315 -133 140 -54 188 -71 210 -72 14
-1 25 -6 25 -10 0 -4 11 -8 24 -8 14 0 27 -4 30 -9 3 -5 23 -12 43 -17 44 -9
52 -11 56 -14 3 -2 18 -6 97 -25 36 -9 72 -18 80 -22 8 -3 22 -7 30 -9 8 -2
31 -6 50 -10 19 -4 42 -9 50 -10 23 -4 55 -12 55 -14 0 -2 20 -6 65 -14 19 -3
73 -12 120 -20 100 -17 213 -33 289 -41 47 -5 53 -4 42 9 -9 10 -9 16 -1 21 8
5 8 10 0 20 -8 9 -8 15 0 20 7 4 7 12 0 25 -7 13 -7 21 0 25 8 5 8 11 0 20 -8
10 -8 19 0 34 7 15 7 21 0 21 -8 0 -8 6 0 20 8 14 8 20 0 20 -8 0 -8 6 0 20 8
14 8 20 0 20 -8 0 -8 6 0 20 8 14 8 20 0 20 -8 0 -8 6 0 20 8 14 8 20 0 20 -8
0 -8 6 0 20 8 14 8 20 0 20 -8 0 -8 6 0 20 8 14 8 20 0 20 -8 0 -8 6 0 20 8
14 8 20 0 20 -8 0 -8 6 0 20 8 14 8 20 0 20 -8 0 -8 6 0 20 8 14 8 20 0 20 -8
0 -8 6 0 20 8 14 8 20 0 20 -8 0 -8 6 0 20 8 14 8 20 0 20 -8 0 -8 6 0 20 8
14 8 20 0 20 -8 0 -8 6 0 20 8 14 8 20 0 20 -8 0 -8 6 0 20 8 14 8 20 0 20 -8
0 -8 6 0 20 7 14 8 26 0 39 -7 14 -7 22 0 26 8 5 8 11 0 20 -8 9 -8 15 0 20 7
4 7 12 0 26 -6 11 -7 19 -1 19 5 0 6 14 1 35 -4 19 -4 35 1 35 5 0 4 12 -1 26
-6 14 -7 23 -2 21 4 -3 7 37 7 89 0 52 -3 94 -7 94 -4 0 -3 11 2 25 6 16 6 25
-1 25 -6 0 -6 7 1 19 7 13 7 22 0 26 -7 4 -7 13 0 26 8 13 7 19 0 19 -8 0 -8
6 0 20 6 11 7 20 3 20 -4 0 -8 16 -8 35 0 19 3 35 7 35 4 0 3 12 -2 26 -6 14
-7 23 -2 21 4 -3 7 37 7 89 0 52 -3 94 -7 94 -4 0 -3 11 2 25 6 16 6 25 -1 25
-6 0 -6 7 1 19 7 13 7 22 0 26 -7 4 -7 13 0 26 8 13 7 19 0 19 -8 0 -8 6 0 20
6 12 7 20 1 20 -6 0 -6 11 -1 30 5 19 5 30 -1 30 -6 0 -6 7 1 19 7 13 7 22 0
26 -7 4 -7 12 0 25 6 10 6 21 1 24 -9 6 -7 48 4 65 3 6 1 11 -5 11 -8 0 -8 6
0 20 8 14 8 20 0 20 -8 0 -8 6 0 20 8 14 8 20 0 20 -8 0 -8 6 0 20 8 14 8 20
0 20 -8 0 -8 6 0 20 8 14 8 20 0 20 -8 0 -8 6 0 20 8 14 8 20 0 20 -8 0 -8 6
0 20 8 14 8 20 0 20 -8 0 -8 6 0 20 8 14 8 20 0 20 -8 0 -8 6 0 20 8 14 8 20
0 20 -8 0 -8 6 0 20 8 14 8 20 0 20 -8 0 -8 6 0 20 8 14 8 20 0 20 -8 0 -8 6
0 20 8 14 8 20 0 20 -8 0 -8 6 0 20 8 14 8 20 0 20 -8 0 -8 6 0 20 8 14 8 20
0 20 -8 0 -8 6 0 20 8 14 8 20 0 20 -8 0 -8 6 0 20 7 14 8 26 0 39 -6 13 -7
22 0 26 5 3 6 15 1 28 -5 12 -5 32 0 45 5 12 5 22 1 22 -4 0 -7 14 -7 30 0 17
4 30 8 30 4 0 3 9 -3 20 -7 13 -7 20 -1 20 7 0 7 9 1 25 -5 14 -6 25 -2 25 9
0 8 42 -1 57 -4 7 -3 14 3 18 7 4 7 12 0 25 -7 13 -7 21 0 25 7 4 7 12 0 25
-7 13 -7 21 0 25 8 5 8 11 0 20 -8 10 -8 15 0 20 7 5 8 11 1 19 -6 7 -6 17 -1
26 5 8 5 21 -1 32 -6 12 -6 18 0 18 7 0 7 8 2 23 -5 12 -5 32 0 45 5 13 5 22
-2 22 -6 0 -6 6 0 18 6 11 6 24 0 34 -6 11 -6 19 1 23 7 4 7 13 0 26 -7 12 -7
19 -1 19 7 0 7 9 1 26 -7 16 -7 23 0 19 7 -4 7 3 0 19 -6 17 -6 26 1 26 6 0 6
7 -1 19 -6 13 -7 22 0 26 6 4 6 15 0 31 -6 14 -7 23 -2 21 4 -3 7 8 7 23 0 15
-3 26 -7 23 -5 -2 -4 7 2 21 5 14 6 26 2 26 -4 0 -7 11 -7 25 0 14 4 25 8 25
4 0 3 9 -3 20 -6 11 -7 20 -3 20 9 0 7 89 -2 98 -2 2 0 13 6 23 7 13 6 19 -1
19 -8 0 -8 6 0 20 8 14 8 20 0 20 -8 0 -8 6 0 20 8 14 8 20 0 20 -8 0 -8 6 0
20 8 14 8 20 0 20 -8 0 -8 6 0 20 8 14 8 20 0 20 -8 0 -8 6 0 20 8 14 8 20 0
20 -8 0 -8 6 0 20 8 14 8 20 0 20 -8 0 -8 6 0 20 8 14 8 20 0 20 -8 0 -8 6 0
20 8 14 8 20 0 20 -8 0 -8 6 0 20 8 14 8 20 0 20 -8 0 -8 6 0 20 8 14 8 20 0
20 -8 0 -8 6 0 20 8 14 8 20 0 20 -8 0 -8 6 0 20 8 14 8 20 0 20 -8 0 -8 6 0
20 8 14 8 20 0 20 -8 0 -8 6 0 20 8 14 8 20 0 20 -8 0 -8 6 0 20 7 14 8 26 0
39 -7 14 -7 22 0 26 8 5 8 11 0 20 -8 9 -8 15 0 20 7 4 7 12 0 26 -6 11 -7 19
-1 19 5 0 6 14 1 35 -4 19 -4 35 1 35 5 0 4 12 -1 26 -6 14 -7 23 -2 21 4 -3
7 37 7 89 0 52 -3 94 -7 94 -4 0 -3 11 2 25 6 16 6 25 -1 25 -6 0 -6 7 1 19 7
13 7 22 0 26 -7 4 -7 13 0 26 8 13 7 19 0 19 -8 0 -8 6 0 20 6 11 7 20 3 20
-4 0 -8 16 -8 35 0 19 3 35 7 35 4 0 3 12 -2 26 -6 14 -7 23 -2 21 4 -3 7 37
7 89 0 52 -3 94 -7 94 -4 0 -3 11 2 25 6 16 6 25 -1 25 -6 0 -6 7 1 19 7 13 7
22 0 26 -7 4 -7 13 0 26 8 13 7 19 0 19 -8 0 -8 6 0 20 6 12 7 20 1 20 -6 0
-6 11 -1 30 5 19 5 30 -1 30 -6 0 -6 7 1 19 7 13 7 22 0 26 -7 4 -7 12 0 25 6
10 6 21 1 24 -9 6 -7 48 4 65 3 6 1 11 -5 11 -8 0 -8 6 0 20 8 14 8 20 0 20
-8 0 -8 6 0 20 8 14 8 20 0 20 -8 0 -8 6 0 20 8 14 8 20 0 20 -8 0 -8 6 0 20
8 14 8 20 0 20 -8 0 -8 6 0 20 8 14 8 20 0 20 -8 0 -8 6 0 20 8 14 8 20 0 20
-8 0 -8 6 0 20 8 14 8 20 0 20 -8 0 -8 6 0 20 8 14 8 20 0 20 -8 0 -8 6 0 20
8 14 8 20 0 20 -8 0 -8 6 0 20 8 14 8 20 0 20 -8 0 -8 6 0 20 8 14 8 20 0 20
-8 0 -8 6 0 20 8 14 8 20 0 20 -8 0 -8 6 0 20 8 14 8 20 0 20 -8 0 -8 6 0 20
8 14 8 20 0 20 -8 0 -8 6 0 20 7 14 8 26 0 39 -6 13 -7 22 0 26 5 3 6 15 1 28
-5 12 -5 32 0 45 5 12 5 22 1 22 -4 0 -7 14 -7 30 0 17 4 30 8 30 4 0 3 9 -3
20 -7 13 -7 20 -1 20 7 0 7 9 1 25 -5 14 -6 25 -2 25 9 0 8 42 -1 57 -4 7 -3
14 3 18 7 4 7 12 0 25 -7 13 -7 21 0 25 7 4 7 12 0 25 -7 13 -7 21 0 25 8 5 8
11 0 20 -8 10 -8 15 0 20 7 5 8 11 1 19 -6 7 -6 17 -1 26 5 8 5 21 -1 32 -6
12 -6 18 0 18 7 0 7 8 2 23 -5 12 -5 32 0 45 5 13 5 22 -2 22 -6 0 -6 6 0 18
6 11 6 24 0 34 -6 11 -6 19 1 23 7 4 7 13 0 26 -7 12 -7 19 -1 19 7 0 7 9 1
26 -7 16 -7 23 0 19 7 -4 7 3 0 19 -6 17 -6 26 1 26 6 0 6 7 -1 19 -6 13 -7
22 0 26 6 4 6 15 0 31 -6 14 -7 23 -2 21 4 -3 7 8 7 23 0 15 -3 26 -7 23 -5
-2 -4 7 2 21 5 14 6 26 2 26 -4 0 -7 11 -7 25 0 14 4 25 8 25 4 0 3 9 -3 20
-6 11 -7 20 -3 20 9 0 7 89 -2 98 -2 2 0 13 6 23 7 13 6 19 -1 19 -8 0 -8 6 0
20 8 14 8 20 0 20 -8 0 -8 6 0 20 8 14 8 20 0 20 -8 0 -8 6 0 20 8 14 8 20 0
20 -8 0 -8 6 0 20 8 14 8 20 0 20 -8 0 -8 6 0 20 8 14 8 20 0 20 -8 0 -8 6 0
20 8 14 8 20 0 20 -8 0 -8 6 0 20 8 14 8 20 0 20 -8 0 -8 6 0 20 8 14 8 20 0
20 -8 0 -8 6 0 20 8 14 8 20 0 20 -8 0 -8 6 0 20 8 14 8 20 0 20 -8 0 -8 6 0
20 8 14 8 20 0 20 -8 0 -8 6 0 20 8 14 8 20 0 20 -8 0 -8 6 0 20 8 14 8 20 0
20 -8 0 -8 6 0 20 8 14 8 20 0 20 -8 0 -8 6 0 20 7 14 8 26 0 39 -7 14 -7 22
0 26 8 5 8 11 0 20 -8 9 -8 15 0 20 7 4 7 12 0 26 -6 11 -7 19 -1 19 5 0 6 14
1 35 -4 19 -4 35 1 35 5 0 4 12 -1 26 -6 14 -7 23 -2 21 4 -3 7 37 7 89 0 52
-3 94 -7 94 -4 0 -3 11 2 25 6 16 6 25 -1 25 -6 0 -6 7 1 19 7 13 7 22 0 26
-7 4 -7 13 0 26 8 13 7 19 0 19 -8 0 -8 6 0 20 6 11 7 20 3 20 -4 0 -8 16 -8
35 0 19 3 35 7 35 4 0 3 12 -2 26 -6 14 -7 23 -2 21 4 -3 7 37 7 89 0 52 -3
94 -7 94 -4 0 -3 11 2 25 6 16 6 25 -1 25 -6 0 -6 7 1 19 7 13 7 22 0 26 -7 4
-7 13 0 26 8 13 7 19 0 19 -8 0 -8 6 0 20 6 12 7 20 1 20 -6 0 -6 11 -1 30 5
19 5 30 -1 30 -6 0 -6 7 1 19 7 13 7 22 0 26 -7 4 -7 12 0 25 6 10 6 21 1 24
-9 6 -7 54 3 63 3 4 1 12 -5 19 -7 8 -7 14 1 19 7 4 7 12 0 26 -8 13 -7 19 0
19 7 0 8 6 0 19 -7 14 -6 21 3 25 6 2 -3 4 -21 3 -18 -1 -34 -2 -35 -3z"/>
<path d="M5439 15507 c8 -11 9 -17 1 -22 -7 -5 -8 -11 -1 -19 6 -7 6 -17 1
-26 -5 -9 -5 -19 1 -26 7 -8 6 -14 -1 -19 -8 -5 -8 -11 0 -20 8 -10 8 -19 0
-34 -7 -15 -7 -21 0 -21 8 0 8 -6 0 -20 -8 -14 -8 -20 0 -20 8 0 8 -6 0 -20
-8 -14 -8 -20 0 -20 8 0 8 -6 0 -20 -8 -14 -8 -20 0 -20 8 0 8 -6 0 -20 -8
-14 -8 -20 0 -20 8 0 8 -6 0 -20 -8 -14 -8 -20 0 -20 8 0 8 -6 0 -20 -8 -14
-8 -20 0 -20 7 0 7 -6 0 -21 -8 -15 -8 -24 0 -34 8 -9 8 -15 0 -20 -7 -4 -7
-12 0 -26 8 -13 7 -19 0 -19 -8 0 -8 -6 0 -20 7 -13 7 -20 1 -20 -7 0 -7 -8
-2 -22 5 -13 5 -33 0 -45 -5 -14 -5 -23 2 -23 6 0 6 -7 -1 -20 -8 -14 -8 -20
0 -20 8 0 8 -6 0 -20 -8 -14 -8 -20 0 -20 7 0 8 -6 1 -18 -6 -11 -6 -24 0 -35
7 -11 7 -17 0 -17 -7 0 -7 -8 -1 -26 6 -14 7 -23 2 -21 -4 3 -7 -37 -7 -89 0
-52 2 -94 5 -94 7 0 4 -66 -5 -79 -3 -6 -1 -11 5 -11 8 0 8 -6 0 -20 -8 -14
-8 -20 0 -20 8 0 8 -6 0 -20 -8 -14 -8 -20 0 -20 8 0 8 -6 0 -20 -8 -14 -8
-20 0 -20 8 0 8 -6 0 -20 -8 -14 -8 -20 0 -20 8 0 8 -6 0 -20 -8 -14 -8 -20 0
-20 8 0 8 -6 0 -20 -8 -14 -8 -20 0 -20 7 0 7 -6 0 -21 -8 -15 -8 -24 0 -34 8
-9 8 -15 0 -20 -7 -4 -7 -12 0 -26 7 -12 7 -19 1 -19 -7 0 -7 -8 -2 -22 5 -13
5 -32 1 -43 -4 -11 -3 -28 2 -37 5 -12 5 -18 -1 -18 -7 0 -7 -8 -2 -22 5 -13
5 -33 0 -45 -5 -14 -5 -23 1 -23 6 0 6 -10 0 -26 -7 -16 -7 -23 0 -19 7 4 7
-3 0 -19 -6 -16 -6 -26 0 -26 6 0 6 -10 0 -26 -7 -16 -7 -23 0 -19 7 4 7 -3 0
-19 -6 -17 -6 -26 1 -26 6 0 6 -7 -1 -20 -8 -14 -8 -20 0 -20 7 0 8 -6 0 -19
-7 -13 -7 -22 0 -26 7 -4 7 -12 0 -25 -6 -10 -6 -21 -1 -24 9 -6 7 -48 -4 -65
-3 -6 -1 -11 5 -11 8 0 8 -6 0 -20 -8 -14 -8 -20 0 -20 8 0 8 -6 0 -20 -8 -14
-8 -20 0 -20 8 0 8 -6 0 -20 -8 -14 -8 -20 0 -20 8 0 8 -6 0 -20 -8 -14 -8
-20 0 -20 8 0 8 -6 0 -20 -8 -14 -8 -20 0 -20 8 0 8 -6 0 -20 -8 -14 -8 -20 0
-20 7 0 7 -6 0 -21 -8 -15 -8 -24 0 -34 8 -9 8 -15 0 -20 -7 -4 -7 -12 0 -26
8 -13 7 -19 0 -19 -8 0 -8 -6 0 -20 7 -13 7 -20 1 -20 -7 0 -7 -8 -2 -22 5
-13 5 -33 0 -45 -5 -14 -5 -23 2 -23 6 0 6 -7 -1 -20 -8 -14 -8 -20 0 -20 8 0
8 -6 0 -20 -8 -14 -8 -20 0 -20 7 0 8 -6 1 -18 -6 -11 -6 -24 0 -35 7 -11 7
-17 0 -17 -7 0 -7 -8 -1 -26 6 -14 7 -23 2 -21 -4 3 -7 -37 -7 -89 0 -52 2
-94 5 -94 7 0 4 -66 -5 -79 -3 -6 -1 -11 5 -11 8 0 8 -6 0 -20 -8 -14 -8 -20
0 -20 8 0 8 -6 0 -20 -8 -14 -8 -20 0 -20 8 0 8 -6 0 -20 -8 -14 -8 -20 0 -20
8 0 8 -6 0 -20 -8 -14 -8 -20 0 -20 8 0 8 -6 0 -20 -8 -14 -8 -20 0 -20 8 0 8
-6 0 -20 -8 -14 -8 -20 0 -20 7 0 7 -6 0 -21 -8 -15 -8 -24 0 -34 8 -9 8 -15
0 -20 -7 -4 -7 -12 0 -26 7 -12 7 -19 1 -19 -7 0 -7 -8 -2 -22 5 -13 5 -32 1
-43 -4 -11 -3 -28 2 -37 5 -12 5 -18 -1 -18 -7 0 -7 -9 -2 -22 5 -13 5 -33 0
-45 -5 -14 -5 -23 1 -23 6 0 6 -10 0 -26 -7 -16 -7 -23 0 -19 7 4 7 -3 0 -19
-6 -16 -6 -26 0 -26 6 0 6 -10 0 -26 -7 -16 -7 -23 0 -19 7 4 7 -3 0 -19 -6
-17 -6 -26 1 -26 6 0 6 -7 -1 -20 -8 -14 -8 -20 0 -20 7 0 8 -6 0 -19 -7 -13
-7 -22 0 -26 7 -4 7 -12 0 -25 -6 -10 -6 -21 -1 -24 9 -6 7 -48 -4 -65 -3 -6
-1 -11 5 -11 8 0 8 -6 0 -20 -8 -14 -8 -20 0 -20 8 0 8 -6 0 -20 -8 -14 -8
-20 0 -20 8 0 8 -6 0 -20 -8 -14 -8 -20 0 -20 8 0 8 -6 0 -20 -8 -14 -8 -20 0
-20 8 0 8 -6 0 -20 -8 -14 -8 -20 0 -20 8 0 8 -6 0 -20 -8 -14 -8 -20 0 -20 7
0 7 -6 0 -21 -8 -15 -8 -24 0 -34 8 -9 8 -15 0 -20 -7 -4 -7 -12 0 -25 12 -22
13 -33 3 -27 -5 3 -8 -6 -8 -19 0 -13 4 -24 9 -24 4 0 6 -6 3 -14 -7 -17 44
-27 67 -14 9 5 17 4 21 -2 5 -8 11 -8 20 0 9 7 15 8 19 1 5 -7 15 -7 31 -1 16
6 25 6 25 -1 0 -6 7 -6 20 1 14 8 20 8 20 0 0 -8 6 -8 20 0 11 6 20 7 20 2 0
-5 20 -6 45 -2 25 4 48 3 51 -2 3 -4 14 -4 24 2 13 7 21 7 25 0 5 -8 11 -8 20
0 9 7 15 8 19 1 5 -7 15 -7 31 -1 16 6 25 6 25 -1 0 -6 7 -6 19 1 13 7 22 7
26 0 4 -7 12 -7 25 0 11 6 21 6 24 1 3 -5 21 -5 41 -1 20 4 38 4 41 -1 3 -5
13 -5 24 1 13 7 21 7 25 0 5 -8 11 -8 20 0 9 7 15 8 19 1 5 -7 15 -7 31 -1 16
6 25 6 25 -1 0 -6 7 -6 19 1 13 7 22 7 26 0 4 -7 12 -7 25 0 11 6 21 6 24 1 3
-5 21 -5 41 -1 20 4 38 4 41 -1 3 -5 13 -5 24 1 13 7 21 7 25 0 5 -8 11 -8 20
0 9 7 15 8 19 1 5 -7 15 -7 31 -1 16 6 25 6 25 -1 0 -6 7 -6 19 1 13 7 22 7
26 0 4 -7 12 -7 25 0 11 6 21 6 24 1 3 -5 21 -5 41 -1 20 4 38 4 41 -1 3 -5
13 -5 24 1 13 7 21 7 25 0 5 -8 11 -8 20 0 9 7 15 8 19 1 5 -7 15 -7 31 -1 16
6 25 6 25 -1 0 -6 7 -6 19 1 13 7 22 7 26 0 4 -7 12 -7 25 0 11 6 21 6 24 1 3
-5 21 -5 41 -1 20 4 38 4 41 -1 3 -5 13 -5 24 1 13 7 21 7 25 0 5 -8 11 -8 20
0 9 7 15 8 19 1 5 -7 15 -7 31 -1 16 6 25 6 25 -1 0 -6 7 -6 19 1 13 7 22 7
26 0 4 -7 12 -7 25 0 11 6 21 6 24 1 3 -5 21 -5 41 -1 20 4 38 4 41 -1 3 -5
13 -5 24 1 13 7 21 7 25 0 5 -8 11 -8 20 0 9 7 15 8 19 1 5 -7 15 -7 31 -1 16
6 25 6 25 -1 0 -6 7 -6 19 1 13 7 22 7 26 0 4 -7 12 -7 25 0 11 6 21 6 24 1 3
-5 21 -5 41 -1 20 4 38 4 41 -1 3 -5 13 -5 24 1 13 7 21 7 25 0 5 -8 11 -8 20
0 9 7 15 8 19 1 5 -7 15 -7 31 -1 16 6 25 6 25 -1 0 -6 7 -6 19 1 13 7 22 7
26 0 4 -7 12 -7 25 0 11 6 21 6 24 1 3 -5 21 -5 41 -1 20 4 38 4 41 -1 3 -5
13 -5 24 1 13 7 21 7 25 0 5 -8 11 -8 20 0 9 7 15 8 19 1 5 -7 15 -7 31 -1 16
6 25 6 25 -1 0 -6 7 -6 19 1 13 7 22 7 26 0 4 -7 12 -7 25 0 11 6 21 6 24 1 3
-5 21 -5 41 -1 20 4 38 4 41 -1 3 -5 13 -5 24 1 13 7 21 7 25 0 5 -8 11 -8 20
0 9 7 15 8 19 1 5 -7 15 -7 31 -1 16 6 25 6 25 -1 0 -6 7 -6 19 1 13 7 22 7
26 0 4 -7 12 -7 25 0 11 6 21 6 24 1 3 -5 21 -5 41 -1 20 4 38 4 41 -1 3 -5
13 -5 24 1 13 7 21 7 25 0 5 -8 11 -8 20 0 9 7 15 8 19 1 5 -7 15 -7 31 -1 16
6 25 6 25 -1 0 -6 7 -6 19 1 13 7 22 7 26 0 4 -7 12 -7 25 0 11 6 21 6 24 1 3
-5 21 -5 41 -1 20 4 38 4 41 -1 3 -5 13 -5 24 1 13 7 21 7 25 0 5 -8 11 -8 20
0 9 7 15 8 19 1 5 -7 15 -7 31 -1 16 6 25 6 25 -1 0 -6 7 -6 19 1 13 7 22 7
26 0 4 -7 12 -7 25 0 11 6 21 6 24 1 3 -5 21 -5 41 -1 20 4 38 4 41 -1 3 -5
13 -5 24 1 13 7 21 7 25 0 5 -8 11 -8 20 0 9 7 15 8 19 1 5 -7 15 -7 31 -1 16
6 25 6 25 -1 0 -6 7 -6 19 1 13 7 22 7 26 0 4 -7 12 -7 25 0 11 6 21 6 24 1 3
-5 21 -5 41 -1 20 4 38 4 41 -1 3 -5 13 -5 24 1 13 7 21 7 25 0 5 -8 11 -8 19
-1 7 6 16 8 19 4 9 -9 67 -10 67 -1 0 4 10 4 23 -1 12 -5 32 -5 45 0 13 5 22
5 22 -1 0 -5 7 -7 15 -3 12 4 14 14 10 42 -4 20 -8 54 -10 76 -5 46 -22 168
-30 205 -8 42 -26 140 -30 168 -2 15 -10 48 -18 74 -8 26 -13 49 -11 51 2 2
-2 22 -10 45 -8 22 -12 43 -9 46 4 3 1 6 -6 6 -7 0 -9 5 -6 11 4 5 3 22 -3 37
-5 15 -15 47 -22 72 -7 25 -15 52 -18 60 -3 8 -6 22 -8 30 -4 17 -62 198 -71
220 -3 8 -7 17 -8 20 -19 56 -94 246 -116 295 -12 28 -23 52 -23 55 -4 18
-148 313 -162 330 -7 8 -13 18 -13 23 0 4 -16 35 -36 68 -19 33 -35 62 -35 64
0 2 -27 47 -60 100 -33 53 -60 99 -60 102 0 3 -13 22 -30 43 -16 21 -30 43
-30 49 0 6 -4 11 -10 11 -5 0 -10 7 -10 15 0 8 -4 15 -10 15 -5 0 -10 7 -10
15 0 8 -4 15 -8 15 -4 0 -16 15 -27 33 -10 17 -21 34 -25 37 -3 3 -38 48 -77
101 -40 52 -79 101 -87 109 -9 7 -16 17 -16 22 0 5 -10 19 -22 32 -20 20 -60
66 -155 175 -13 14 -23 29 -23 34 0 4 -7 7 -15 7 -8 0 -15 4 -15 9 0 11 -182
194 -279 281 -40 36 -83 74 -95 85 -12 11 -39 34 -60 50 -22 17 -45 36 -52 43
-7 6 -18 12 -24 12 -6 0 -8 5 -5 10 3 6 1 10 -5 10 -6 0 -25 13 -43 30 -18 16
-37 30 -44 30 -6 0 -13 3 -15 8 -1 4 -41 35 -88 69 -47 34 -90 66 -96 70 -19
15 -49 33 -64 40 -8 4 -26 17 -40 30 -14 13 -28 23 -32 23 -4 0 -50 27 -103
60 -53 33 -98 60 -100 60 -2 0 -32 17 -67 37 -35 21 -69 38 -77 39 -8 2 -17 7
-20 11 -3 5 -64 37 -136 71 -71 35 -138 67 -147 72 -10 6 -25 10 -33 10 -8 0
-15 4 -15 9 0 5 -10 11 -22 14 -24 5 -123 45 -195 78 -24 10 -46 19 -50 19 -3
0 -44 14 -89 30 -46 17 -92 33 -103 35 -11 2 -28 8 -39 14 -11 6 -22 7 -26 4
-3 -3 -6 -2 -6 4 0 5 -6 10 -12 11 -29 2 -73 14 -84 23 -6 5 -13 6 -17 3 -3
-3 -14 -1 -24 4 -10 6 -31 12 -48 16 -36 6 -75 16 -95 23 -8 3 -19 7 -25 8
-93 21 -188 41 -265 55 -52 10 -97 19 -100 20 -3 1 -8 2 -12 2 -3 -1 -46 5
-95 13 -48 7 -115 16 -147 20 -52 6 -58 4 -47 -8z"/>
<path d="M15908 15515 c-2 -1 -48 -6 -103 -9 -55 -4 -118 -9 -140 -12 -22 -2
-60 -7 -85 -10 -89 -9 -137 -17 -245 -36 -33 -5 -73 -12 -90 -15 -16 -2 -79
-16 -140 -29 -60 -13 -121 -27 -135 -30 -13 -3 -29 -9 -36 -15 -6 -5 -13 -7
-16 -4 -2 2 -44 -7 -94 -20 -49 -14 -96 -27 -104 -29 -8 -3 -16 -5 -17 -6 -2
-2 -7 -4 -13 -5 -5 -1 -11 -3 -12 -5 -2 -1 -10 -3 -18 -5 -32 -6 -305 -103
-355 -125 -71 -32 -114 -50 -118 -50 -3 0 -49 -21 -103 -47 -55 -25 -101 -47
-104 -48 -25 -8 -66 -29 -100 -50 -22 -14 -40 -23 -40 -20 0 3 -10 -1 -22 -9
-29 -19 -103 -61 -148 -83 -19 -10 -41 -24 -48 -30 -7 -7 -17 -13 -22 -13 -8
0 -135 -80 -157 -99 -7 -6 -15 -11 -18 -11 -6 0 -133 -84 -170 -113 -5 -4 -46
-34 -90 -67 -128 -97 -137 -104 -151 -117 -7 -7 -15 -13 -18 -13 -3 0 -18 -12
-34 -27 -15 -16 -50 -46 -76 -68 -94 -77 -281 -259 -386 -376 -41 -45 -80 -87
-85 -93 -6 -6 -33 -38 -60 -71 -28 -33 -53 -61 -57 -63 -5 -2 -8 -8 -8 -13 0
-6 -10 -20 -22 -33 -35 -36 -238 -310 -238 -321 0 -2 -18 -30 -39 -62 -65 -97
-165 -264 -201 -338 -19 -38 -38 -72 -41 -75 -7 -5 -83 -160 -84 -170 -1 -3
-9 -21 -20 -40 -11 -19 -20 -37 -20 -40 -1 -3 -11 -27 -23 -53 -12 -27 -22
-53 -22 -58 0 -5 -5 -9 -11 -9 -5 0 -8 -4 -5 -8 3 -5 -1 -19 -8 -33 -7 -13
-13 -27 -14 -32 -1 -4 -9 -21 -17 -37 -9 -17 -13 -30 -10 -30 3 0 -1 -13 -10
-29 -16 -32 -132 -376 -139 -413 -3 -13 -6 -25 -7 -28 -1 -3 -3 -9 -4 -15 -2
-5 -4 -12 -5 -15 -1 -3 -3 -12 -5 -20 -2 -8 -9 -33 -15 -55 -6 -22 -13 -49
-15 -60 -3 -11 -9 -41 -15 -66 -6 -26 -13 -55 -15 -65 -2 -11 -4 -21 -5 -24
-1 -3 -2 -13 -1 -22 1 -10 -3 -18 -9 -18 -6 0 -9 -4 -6 -8 3 -5 -4 -57 -14
-117 -11 -59 -21 -121 -22 -136 -1 -16 -5 -29 -8 -29 -3 0 -5 -17 -6 -38 0
-20 -4 -62 -7 -91 -4 -30 -5 -52 -1 -48 4 3 15 2 25 -4 13 -6 19 -6 19 0 0 7
9 7 25 1 16 -6 26 -6 31 1 4 7 10 7 18 0 7 -6 17 -6 26 -1 8 5 21 5 32 -1 12
-6 18 -6 18 0 0 7 9 7 25 1 15 -6 26 -6 30 1 4 5 12 6 18 2 16 -10 48 -10 70
0 10 5 17 4 17 -3 0 -8 6 -8 20 0 14 8 20 8 20 0 0 -7 6 -8 19 0 14 7 22 7 26
0 4 -6 11 -7 18 -3 15 9 57 10 57 1 0 -4 11 -3 25 2 16 6 25 6 25 -1 0 -6 7
-6 20 1 12 6 20 7 20 1 0 -6 11 -6 30 -1 19 5 30 5 30 -1 0 -6 7 -6 19 1 13 7
22 7 26 0 4 -7 13 -7 26 0 10 6 19 7 19 2 0 -9 53 -8 69 3 6 3 11 1 11 -5 0
-8 6 -8 20 0 14 8 20 8 20 0 0 -7 6 -8 19 0 14 7 22 7 26 0 4 -7 11 -8 18 -1
15 11 27 12 48 0 9 -5 20 -4 26 2 8 8 13 7 17 0 5 -8 13 -8 26 -1 13 7 21 7
25 0 4 -6 13 -7 23 -1 11 6 24 6 35 0 11 -7 17 -7 17 0 0 7 8 7 25 1 15 -6 26
-6 30 1 4 5 12 6 18 2 16 -10 48 -10 70 0 10 5 17 4 17 -3 0 -8 6 -8 20 0 14
8 20 8 20 0 0 -7 6 -8 19 0 14 7 22 7 26 0 4 -6 11 -7 18 -3 15 9 57 10 57 1
0 -4 11 -3 25 2 16 6 25 6 25 -1 0 -6 7 -6 20 1 12 6 20 7 20 1 0 -6 11 -6 30
-1 19 5 30 5 30 -1 0 -6 7 -6 19 1 13 7 22 7 26 0 4 -7 13 -7 26 0 10 6 19 7
19 2 0 -9 53 -8 69 3 6 3 11 1 11 -5 0 -8 6 -8 20 0 14 8 20 8 20 0 0 -7 6 -8
19 0 14 7 22 7 26 0 4 -7 11 -8 18 -1 19 15 21 15 43 3 14 -8 24 -8 31 -1 8 8
13 7 17 0 5 -8 13 -8 26 -1 13 7 21 7 25 0 4 -6 13 -7 23 -1 11 6 24 6 35 0
11 -7 17 -7 17 0 0 7 8 7 25 1 15 -6 26 -6 30 1 4 5 12 6 18 2 16 -10 48 -10
70 0 10 5 17 4 17 -3 0 -8 6 -8 20 0 14 8 20 8 20 0 0 -7 6 -8 19 0 14 7 22 7
26 0 4 -6 11 -7 18 -3 15 9 57 10 57 1 0 -4 11 -3 25 2 16 6 25 6 25 -1 0 -6
7 -6 20 1 12 6 20 7 20 1 0 -6 11 -6 30 -1 19 5 30 5 30 -1 0 -6 7 -6 19 1 13
7 22 7 26 0 4 -7 13 -7 26 0 10 6 19 7 19 2 0 -9 53 -8 69 3 6 3 11 1 11 -5 0
-8 6 -8 20 0 14 8 20 8 20 0 0 -7 6 -8 19 0 14 7 22 7 26 0 4 -7 11 -8 18 -1
19 15 21 15 43 3 14 -8 24 -8 31 -1 8 8 13 7 17 0 5 -8 13 -8 26 -1 13 7 21 7
25 0 4 -6 13 -7 23 -1 11 6 24 6 35 0 11 -7 17 -7 17 0 0 7 8 7 25 1 15 -6 26
-6 30 1 4 5 12 6 18 2 16 -10 48 -10 70 0 10 5 17 4 17 -3 0 -8 6 -8 20 0 14
8 20 8 20 0 0 -7 6 -8 19 0 14 7 22 7 26 0 4 -6 11 -7 18 -3 15 9 57 10 57 1
0 -4 11 -3 25 2 16 6 25 6 25 -1 0 -6 7 -6 20 1 12 6 20 7 20 1 0 -6 11 -6 30
-1 19 5 30 5 30 -1 0 -6 7 -6 19 1 13 7 22 7 26 0 4 -7 13 -7 26 0 10 6 19 7
19 2 0 -9 53 -8 69 3 6 3 11 1 11 -5 0 -8 6 -8 20 0 14 8 20 8 20 0 0 -7 6 -8
19 0 14 7 22 7 26 0 4 -7 11 -8 18 -1 15 11 27 12 48 0 9 -5 20 -4 26 2 8 8
13 7 17 0 5 -8 13 -8 26 -1 13 7 21 7 25 0 4 -6 13 -7 23 -1 11 6 24 6 35 0
11 -7 17 -7 17 0 0 7 8 7 25 1 15 -6 26 -6 30 1 4 5 12 6 18 2 16 -10 48 -10
70 0 10 5 17 4 17 -3 0 -8 6 -8 20 0 14 8 20 8 20 0 0 -7 6 -8 19 0 14 7 22 7
26 0 4 -6 11 -7 18 -3 15 9 57 10 57 1 0 -4 11 -3 25 2 16 6 25 6 25 -1 0 -6
7 -6 20 1 12 6 20 7 20 1 0 -6 11 -6 30 -1 19 5 30 5 30 -1 0 -6 7 -6 19 1 13
7 22 7 26 0 4 -7 13 -7 26 0 10 6 19 7 19 2 0 -9 53 -8 69 3 6 3 11 1 11 -5 0
-8 6 -8 20 0 14 8 20 8 20 0 0 -7 6 -8 19 0 14 7 22 7 26 0 4 -7 11 -8 18 -1
19 15 21 15 43 3 14 -8 24 -8 31 -1 8 8 13 7 17 0 5 -8 13 -8 26 -1 13 7 21 7
25 0 4 -6 13 -7 23 -1 11 6 24 6 35 0 11 -7 17 -7 17 0 0 7 8 7 25 1 15 -6 26
-6 30 1 4 5 12 6 18 2 16 -10 48 -10 70 0 10 5 17 4 17 -3 0 -8 6 -8 20 0 14
8 20 8 20 0 0 -7 6 -8 19 0 14 7 22 7 26 0 4 -6 11 -7 18 -3 15 9 57 10 57 1
0 -4 11 -3 25 2 16 6 25 6 25 -1 0 -6 7 -6 20 1 12 6 20 7 20 1 0 -6 11 -6 30
-1 19 5 30 5 30 -1 0 -6 7 -6 19 1 13 7 22 7 26 0 4 -7 13 -7 26 0 10 6 19 7
19 2 0 -9 53 -8 69 3 6 3 11 1 11 -5 0 -8 6 -8 20 0 14 8 20 8 20 0 0 -7 6 -8
19 0 14 7 22 7 26 0 4 -7 11 -8 18 -1 15 11 27 12 48 0 9 -5 20 -4 26 2 8 8
13 7 17 0 5 -8 13 -8 26 -1 13 7 21 7 25 0 4 -6 13 -7 23 -1 11 6 24 6 35 0
11 -7 17 -7 17 0 0 7 8 7 25 1 15 -6 26 -6 30 1 4 5 12 6 18 2 16 -10 48 -10
70 0 10 5 17 4 17 -3 0 -8 6 -8 20 0 14 8 20 8 20 0 0 -7 6 -8 19 0 14 7 22 7
26 0 4 -6 11 -7 18 -3 15 9 57 10 57 1 0 -4 11 -3 25 2 16 6 25 6 25 -1 0 -6
7 -6 20 1 12 6 20 7 20 1 0 -6 11 -6 30 -1 19 5 30 5 30 -1 0 -6 7 -6 19 1 13
7 22 7 26 0 4 -7 13 -7 26 0 10 6 19 7 19 2 0 -9 53 -8 69 3 6 3 11 1 11 -5 0
-8 6 -8 20 0 14 8 20 8 20 0 0 -7 6 -8 19 0 14 7 22 7 26 0 4 -7 11 -8 18 -1
15 11 27 12 48 0 9 -5 20 -4 26 2 8 8 13 7 17 0 5 -8 13 -8 26 -1 13 7 21 7
25 0 4 -6 13 -7 23 -1 11 6 24 6 35 0 11 -7 17 -7 17 0 0 7 8 7 25 1 15 -6 26
-6 30 1 4 5 12 6 18 2 16 -10 48 -10 70 0 10 5 17 4 17 -3 0 -8 6 -8 20 0 14
8 20 8 20 0 0 -7 6 -8 19 0 14 7 22 7 26 0 4 -6 11 -7 18 -3 15 9 57 10 57 1
0 -4 11 -3 25 2 16 6 25 6 25 -1 0 -6 7 -6 20 1 12 6 20 7 20 1 0 -6 11 -6 30
-1 19 5 30 5 30 -1 0 -6 7 -6 19 1 13 7 22 7 26 0 4 -7 13 -7 26 0 10 6 19 7
19 2 0 -9 53 -8 69 3 6 3 11 1 11 -5 0 -8 6 -8 20 0 14 8 20 8 20 0 0 -7 6 -8
19 0 14 7 22 7 26 0 4 -6 12 -7 18 -3 16 10 29 11 48 2 9 -5 21 -3 26 2 8 8
13 7 17 0 5 -8 13 -8 26 -1 13 7 21 7 25 0 4 -6 13 -7 23 -1 11 6 24 6 35 0
11 -7 17 -7 17 0 0 7 8 7 25 1 15 -6 26 -6 30 1 4 5 12 6 18 2 16 -10 48 -10
70 0 10 5 17 4 17 -3 0 -8 6 -8 20 0 14 8 20 8 20 0 0 -7 6 -8 19 0 14 7 22 7
26 0 4 -6 11 -7 18 -3 15 9 57 10 57 1 0 -4 11 -3 25 2 16 6 25 6 25 -1 0 -6
7 -6 20 1 12 6 20 7 20 1 0 -6 11 -6 30 -1 19 5 30 5 30 -1 0 -6 7 -6 19 1 13
7 22 7 26 0 4 -7 13 -7 26 0 10 6 19 7 19 2 0 -9 53 -8 69 3 6 3 11 1 11 -5 0
-8 6 -8 20 0 14 8 20 8 20 0 0 -7 6 -8 19 0 14 7 22 7 26 0 4 -7 11 -8 18 -1
19 15 21 15 43 3 14 -8 24 -8 31 -1 8 8 13 7 17 0 5 -8 13 -8 26 -1 13 7 21 7
25 0 4 -6 13 -7 23 -1 11 6 24 6 35 0 11 -7 17 -7 17 0 0 7 8 7 25 1 15 -6 26
-6 30 1 4 5 12 6 18 2 16 -10 48 -10 70 0 10 5 17 4 17 -3 0 -8 6 -8 20 0 14
8 20 8 20 0 0 -7 6 -8 19 0 14 7 22 7 26 0 4 -6 11 -7 18 -3 15 9 57 10 57 1
0 -4 11 -3 25 2 16 6 25 6 25 -1 0 -6 7 -6 20 1 12 6 20 7 20 1 0 -6 11 -6 30
-1 19 5 30 5 30 -1 0 -6 7 -6 19 1 13 7 22 7 26 0 4 -7 13 -7 26 0 10 6 19 7
19 2 0 -9 53 -8 69 3 6 3 11 1 11 -5 0 -8 6 -8 20 0 14 8 20 8 20 0 0 -7 6 -8
19 0 14 7 22 7 26 0 5 -8 12 -7 22 2 9 7 17 13 17 12 18 -15 45 -21 53 -13 8
8 13 7 17 0 5 -8 13 -8 26 -1 13 7 21 7 25 0 4 -6 13 -7 23 -1 11 6 24 6 35 0
11 -7 17 -7 17 0 0 7 8 7 24 1 15 -5 27 -5 34 2 6 6 12 6 16 0 3 -6 15 -8 27
-5 16 4 19 11 15 32 -3 14 -8 51 -11 81 -3 30 -7 66 -9 80 -2 14 -8 48 -12 75
-4 28 -9 57 -10 65 -2 8 -6 31 -9 50 -4 19 -9 44 -11 55 -7 42 -21 111 -28
140 -2 6 -6 21 -9 35 -4 14 -9 36 -12 50 -2 14 -13 58 -23 97 -10 40 -16 75
-14 78 3 3 -1 5 -8 5 -7 0 -11 3 -7 6 3 3 -3 30 -13 60 -11 30 -16 54 -13 54
3 0 1 6 -5 13 -8 10 -40 105 -47 142 -2 6 -12 33 -23 60 -11 28 -35 88 -53
135 -18 47 -43 109 -57 139 -13 30 -25 61 -26 68 -1 7 -8 19 -14 25 -7 7 -12
17 -12 23 0 6 -35 80 -78 165 -77 151 -91 177 -146 270 -14 25 -34 60 -43 78
-9 17 -20 32 -25 32 -4 0 -8 5 -8 11 0 11 -65 117 -79 129 -8 7 -29 41 -38 60
-9 19 -191 266 -218 294 -5 6 -23 28 -38 49 -16 20 -38 48 -50 61 -12 13 -33
38 -47 55 -69 84 -279 301 -291 301 -6 0 -8 4 -4 9 3 5 -4 12 -15 16 -11 3
-20 13 -20 21 0 8 -4 14 -9 14 -5 0 -27 17 -49 38 -34 32 -69 63 -171 149 -14
12 -44 38 -66 57 -22 20 -43 36 -46 36 -3 0 -17 9 -30 21 -13 11 -34 29 -47
40 -12 10 -25 19 -29 19 -4 0 -16 8 -27 19 -33 29 -275 191 -286 191 -5 0 -10
4 -10 8 0 5 -18 17 -40 27 -22 10 -40 22 -40 27 0 4 -5 8 -10 8 -6 0 -40 18
-76 40 -36 22 -68 40 -70 40 -2 0 -40 20 -84 44 -44 25 -80 42 -80 38 0 -4 -4
-2 -8 4 -6 8 -75 46 -92 49 -3 1 -34 15 -70 32 -108 51 -159 73 -165 73 -3 0
-22 7 -43 17 -52 23 -100 42 -147 58 -22 8 -78 27 -125 44 -46 16 -88 27 -92
25 -5 -3 -8 0 -8 5 0 6 -18 14 -40 17 -22 4 -43 11 -46 15 -3 5 -10 7 -15 3
-5 -3 -15 -1 -22 4 -10 8 -58 22 -129 38 -5 1 -9 2 -10 4 -2 1 -11 3 -22 5
-42 8 -122 27 -136 32 -8 3 -24 7 -35 8 -20 3 -62 11 -102 20 -13 3 -32 7 -42
9 -11 3 -41 8 -68 12 -26 3 -57 8 -68 11 -50 10 -63 12 -115 17 -30 3 -64 8
-75 10 -11 2 -51 7 -90 10 -38 4 -92 9 -120 12 -55 5 -622 14 -627 9z"/>
<path d="M5460 10080 c-8 -5 -17 -7 -20 -5 -3 2 -5 -7 -5 -20 0 -13 3 -21 7
-18 5 2 4 -7 -2 -21 -6 -17 -6 -26 1 -26 6 0 6 -7 -1 -19 -7 -13 -7 -22 0 -26
7 -4 7 -13 0 -26 -8 -13 -7 -19 0 -19 7 0 8 -6 0 -19 -7 -13 -7 -22 0 -26 7
-4 7 -12 0 -25 -7 -13 -7 -21 0 -25 6 -4 7 -11 3 -18 -10 -16 -10 -57 0 -57 4
0 3 -9 -3 -19 -7 -13 -7 -22 0 -26 7 -4 7 -12 0 -25 -6 -10 -6 -21 -1 -24 9
-6 7 -48 -4 -65 -3 -6 -1 -11 5 -11 8 0 8 -6 0 -20 -8 -14 -8 -20 0 -20 8 0 8
-6 0 -20 -8 -14 -8 -20 0 -20 8 0 8 -6 0 -20 -8 -14 -8 -20 0 -20 8 0 8 -6 0
-20 -8 -14 -8 -20 0 -20 8 0 8 -6 0 -20 -8 -14 -8 -20 0 -20 8 0 8 -6 0 -20
-8 -14 -8 -20 0 -20 7 0 7 -6 0 -21 -8 -15 -8 -24 0 -34 8 -9 8 -15 0 -20 -7
-4 -7 -12 0 -26 8 -13 7 -19 0 -19 -8 0 -8 -6 0 -20 7 -13 7 -20 1 -20 -7 0
-7 -8 -2 -22 5 -13 5 -33 0 -45 -5 -14 -5 -23 2 -23 6 0 6 -7 -1 -20 -8 -14
-8 -20 0 -20 8 0 8 -6 0 -20 -8 -14 -8 -20 0 -20 7 0 8 -6 1 -18 -6 -11 -6
-24 0 -35 7 -11 7 -17 0 -17 -7 0 -7 -8 -1 -26 6 -14 7 -23 2 -21 -4 3 -7 -37
-7 -89 0 -52 2 -94 5 -94 7 0 4 -66 -5 -79 -3 -6 -1 -11 5 -11 8 0 8 -6 0 -20
-8 -14 -8 -20 0 -20 8 0 8 -6 0 -20 -8 -14 -8 -20 0 -20 8 0 8 -6 0 -20 -8
-14 -8 -20 0 -20 8 0 8 -6 0 -20 -8 -14 -8 -20 0 -20 8 0 8 -6 0 -20 -8 -14
-8 -20 0 -20 8 0 8 -6 0 -20 -8 -14 -8 -20 0 -20 7 0 7 -6 0 -21 -8 -15 -8
-24 0 -34 8 -9 8 -15 0 -20 -7 -4 -7 -12 0 -26 7 -12 7 -19 1 -19 -7 0 -7 -8
-2 -22 5 -13 5 -32 1 -43 -4 -11 -3 -28 2 -37 5 -12 5 -18 -1 -18 -7 0 -7 -9
-2 -22 5 -13 5 -33 0 -45 -5 -14 -5 -23 1 -23 6 0 6 -10 0 -26 -7 -16 -7 -23
0 -19 7 4 7 -3 0 -19 -6 -16 -6 -26 0 -26 6 0 6 -10 0 -26 -7 -16 -7 -23 0
-19 7 4 7 -3 0 -19 -6 -17 -6 -26 1 -26 6 0 6 -7 -1 -20 -8 -14 -8 -20 0 -20
7 0 8 -6 0 -19 -7 -13 -7 -22 0 -26 7 -4 7 -12 0 -25 -6 -10 -6 -21 -1 -24 9
-6 7 -48 -4 -65 -3 -6 -1 -11 5 -11 8 0 8 -6 0 -20 -8 -14 -8 -20 0 -20 8 0 8
-6 0 -20 -8 -14 -8 -20 0 -20 8 0 8 -6 0 -20 -8 -14 -8 -20 0 -20 8 0 8 -6 0
-20 -8 -14 -8 -20 0 -20 8 0 8 -6 0 -20 -8 -14 -8 -20 0 -20 8 0 8 -6 0 -20
-8 -14 -8 -20 0 -20 7 0 7 -6 0 -21 -8 -15 -8 -24 0 -34 8 -9 8 -15 0 -20 -7
-4 -7 -12 0 -26 8 -13 7 -19 0 -19 -8 0 -8 -6 0 -20 7 -13 7 -20 1 -20 -7 0
-7 -8 -2 -22 5 -13 5 -33 0 -45 -5 -14 -5 -23 2 -23 6 0 6 -7 -1 -20 -8 -14
-8 -20 0 -20 8 0 8 -6 0 -20 -8 -14 -8 -20 0 -20 7 0 8 -6 1 -18 -6 -11 -6
-24 0 -35 7 -11 7 -17 0 -17 -7 0 -7 -8 -1 -26 6 -14 7 -23 2 -21 -4 3 -7 -37
-7 -89 0 -52 2 -94 5 -94 7 0 4 -66 -5 -79 -3 -6 -1 -11 5 -11 8 0 8 -6 0 -20
-8 -14 -8 -20 0 -20 8 0 8 -6 0 -20 -8 -14 -8 -20 0 -20 8 0 8 -6 0 -20 -8
-14 -8 -20 0 -20 8 0 8 -6 0 -20 -8 -14 -8 -20 0 -20 8 0 8 -6 0 -20 -8 -14
-8 -20 0 -20 8 0 8 -6 0 -20 -8 -14 -8 -20 0 -20 7 0 7 -6 0 -21 -8 -15 -8
-24 0 -34 8 -9 8 -15 0 -20 -7 -4 -7 -12 0 -26 7 -12 7 -19 1 -19 -7 0 -7 -8
-2 -22 5 -13 5 -32 1 -43 -4 -11 -3 -28 2 -37 5 -12 5 -18 -1 -18 -7 0 -7 -8
-2 -22 5 -13 5 -33 0 -45 -5 -14 -5 -23 1 -23 6 0 6 -10 0 -26 -7 -16 -7 -23
0 -19 7 4 7 -3 0 -19 -6 -16 -6 -26 0 -26 6 0 6 -10 0 -26 -7 -16 -7 -23 0
-19 7 4 7 -3 0 -19 -6 -17 -6 -26 1 -26 6 0 6 -7 -1 -20 -8 -14 -8 -20 0 -20
7 0 8 -6 0 -19 -7 -13 -7 -22 0 -26 7 -4 7 -12 0 -25 -7 -13 -7 -21 0 -25 6
-4 7 -13 1 -23 -6 -11 -6 -24 0 -35 7 -11 6 -17 -1 -17 -8 0 -8 -6 0 -20 8
-14 8 -20 0 -20 -8 0 -8 -6 0 -20 6 -12 7 -20 1 -20 -5 0 -7 -9 -4 -20 5 -20
14 -20 2244 -20 l2239 0 -1 28 c0 15 0 77 0 137 0 61 0 117 0 125 -1 8 -1 38
0 65 0 28 1 57 0 65 0 8 0 80 0 160 2 324 1 407 0 418 -1 4 -1 12 0 17 1 6 1
66 1 135 -1 69 -1 139 0 155 1 17 2 37 1 45 0 8 0 47 0 85 0 39 0 77 0 85 -1
8 -1 33 0 55 1 22 1 45 1 50 -1 6 -1 55 -1 110 -1 197 -1 215 -2 223 -1 4 -1
12 0 17 2 8 1 209 0 240 -1 6 -1 33 0 60 0 28 1 57 0 65 0 8 0 80 0 160 2 324
1 407 0 418 -1 4 -1 12 0 17 1 6 1 66 1 135 -1 69 -1 139 0 155 1 17 2 37 1
45 0 8 0 47 0 85 0 39 0 77 0 85 -1 8 -1 33 0 55 1 22 1 45 1 50 -1 6 -1 55
-1 110 -1 197 -1 215 -2 223 -1 4 -1 12 0 17 1 6 1 60 1 120 -1 61 0 130 1
155 1 25 1 52 0 60 -1 18 -1 129 1 139 0 3 -1 11 -2 16 -1 6 -2 30 -2 55 0 41
-3 45 -24 45 -13 0 -24 -4 -24 -8 0 -4 -9 -3 -20 3 -13 7 -20 7 -20 1 0 -6 -9
-7 -22 -2 -12 4 -37 5 -55 1 -18 -5 -33 -4 -33 1 0 5 -11 4 -25 -1 -16 -6 -25
-6 -25 1 0 6 -7 6 -20 -1 -12 -6 -20 -7 -20 -1 0 6 -11 6 -30 1 -19 -5 -30 -5
-30 1 0 6 -7 6 -19 -1 -13 -7 -22 -7 -26 0 -4 7 -13 7 -26 0 -10 -6 -19 -7
-19 -2 0 9 -53 8 -69 -3 -6 -3 -11 -1 -11 5 0 8 -6 8 -20 0 -14 -8 -20 -8 -20
0 0 7 -6 8 -19 0 -14 -7 -22 -7 -26 0 -5 8 -12 7 -22 -2 -9 -7 -17 -13 -17
-12 -18 15 -45 21 -53 13 -8 -8 -13 -7 -17 0 -5 8 -13 8 -26 1 -13 -7 -21 -7
-25 0 -4 6 -13 7 -23 1 -11 -6 -24 -6 -35 0 -11 7 -17 7 -17 0 0 -7 -8 -7 -24
-1 -15 5 -27 5 -34 -2 -6 -6 -12 -6 -16 0 -4 7 -17 7 -35 2 -15 -4 -34 -4 -42
1 -7 4 -19 4 -25 -2 -8 -7 -14 -6 -19 1 -4 7 -12 7 -25 0 -13 -7 -21 -7 -25 0
-4 6 -13 7 -23 1 -11 -6 -24 -6 -35 0 -11 7 -17 7 -17 0 0 -7 -8 -7 -25 -1
-15 6 -26 6 -30 -1 -4 -5 -12 -6 -18 -2 -16 10 -48 10 -69 0 -11 -5 -18 -4
-18 3 0 8 -6 8 -20 0 -14 -8 -20 -8 -20 0 0 7 -6 8 -19 0 -14 -7 -22 -7 -26 0
-4 6 -11 7 -18 3 -15 -9 -57 -10 -57 -1 0 4 -11 3 -25 -2 -16 -6 -25 -6 -25 1
0 6 -7 6 -20 -1 -12 -6 -20 -7 -20 -1 0 6 -11 6 -30 1 -19 -5 -30 -5 -30 1 0
6 -7 6 -19 -1 -13 -7 -22 -7 -26 0 -4 7 -13 7 -26 0 -10 -6 -19 -7 -19 -2 0 9
-53 8 -69 -3 -6 -3 -11 -1 -11 5 0 8 -6 8 -20 0 -14 -8 -20 -8 -20 0 0 7 -6 8
-19 0 -14 -7 -22 -7 -26 0 -5 8 -12 7 -22 -2 -9 -7 -19 -11 -22 -10 -30 18
-39 20 -48 11 -8 -8 -13 -7 -17 0 -5 8 -13 8 -26 1 -13 -7 -21 -7 -25 0 -4 6
-13 7 -23 1 -11 -6 -24 -6 -35 0 -11 7 -17 7 -17 0 0 -7 -8 -7 -24 -1 -15 5
-27 5 -34 -2 -6 -6 -12 -6 -16 0 -4 7 -17 7 -35 2 -15 -4 -34 -4 -42 1 -7 4
-19 4 -25 -2 -8 -7 -14 -6 -19 1 -4 7 -12 7 -25 0 -13 -7 -21 -7 -25 0 -4 6
-13 7 -23 1 -11 -6 -24 -6 -35 0 -11 7 -17 7 -17 0 0 -7 -8 -7 -25 -1 -15 6
-26 6 -30 -1 -4 -5 -12 -6 -18 -2 -16 10 -48 10 -69 0 -11 -5 -18 -4 -18 3 0
8 -6 8 -20 0 -14 -8 -20 -8 -20 0 0 7 -6 8 -19 0 -14 -7 -22 -7 -26 0 -4 6
-11 7 -18 3 -15 -9 -57 -10 -57 -1 0 4 -11 3 -25 -2 -16 -6 -25 -6 -25 1 0 6
-7 6 -20 -1 -12 -6 -20 -7 -20 -1 0 6 -11 6 -30 1 -19 -5 -30 -5 -30 1 0 6 -7
6 -19 -1 -13 -7 -22 -7 -26 0 -4 7 -13 7 -26 0 -10 -6 -19 -7 -19 -2 0 9 -53
8 -69 -3 -6 -3 -11 -1 -11 5 0 8 -6 8 -20 0 -14 -8 -20 -8 -20 0 0 7 -6 8 -19
0 -14 -7 -22 -7 -26 0 -4 7 -11 8 -18 1 -19 -15 -21 -15 -43 -3 -14 8 -24 8
-31 1 -8 -8 -13 -7 -17 0 -5 8 -13 8 -26 1 -13 -7 -21 -7 -25 0 -4 6 -13 7
-23 1 -11 -6 -24 -6 -35 0 -11 7 -17 7 -17 0 0 -7 -8 -7 -24 -1 -15 5 -27 5
-34 -2 -6 -6 -12 -6 -16 0 -4 7 -17 7 -35 2 -15 -4 -34 -4 -42 1 -7 4 -19 4
-25 -2 -8 -7 -14 -6 -19 1 -4 7 -12 7 -25 0 -13 -7 -21 -7 -25 0 -4 6 -13 7
-23 1 -11 -6 -24 -6 -35 0 -11 7 -17 7 -17 0 0 -7 -8 -7 -25 -1 -15 6 -26 6
-30 -1 -4 -5 -12 -6 -18 -2 -16 10 -48 10 -69 0 -11 -5 -18 -4 -18 3 0 8 -6 8
-20 0 -14 -8 -20 -8 -20 0 0 7 -6 8 -19 0 -14 -7 -22 -7 -26 0 -4 6 -11 7 -18
3 -15 -9 -57 -10 -57 -1 0 4 -11 3 -25 -2 -16 -6 -25 -6 -25 1 0 6 -7 6 -20
-1 -12 -6 -20 -7 -20 -1 0 6 -11 6 -30 1 -19 -5 -30 -5 -30 1 0 6 -7 6 -19 -1
-13 -7 -22 -7 -26 0 -4 7 -13 7 -26 0 -10 -6 -19 -7 -19 -2 0 9 -53 8 -69 -3
-6 -3 -11 -1 -11 5 0 8 -6 8 -20 0 -14 -8 -20 -8 -20 0 0 7 -6 8 -19 0 -12 -6
-21 -6 -23 0 -2 6 -9 6 -18 0z"/>
<path d="M11211 10077 c-6 -8 -9 -22 -7 -33 2 -10 7 -44 10 -74 11 -89 15
-123 21 -150 2 -14 7 -38 10 -55 3 -16 7 -40 9 -52 10 -48 17 -108 14 -114 -2
-3 3 -13 11 -22 7 -10 11 -17 8 -17 -3 0 3 -36 13 -80 10 -43 15 -82 12 -85
-3 -3 0 -5 6 -5 7 0 12 -13 12 -30 0 -16 4 -30 9 -30 6 0 8 -9 6 -20 -2 -11 1
-22 6 -25 5 -4 7 -11 3 -16 -3 -5 0 -16 6 -24 7 -8 10 -15 6 -15 -3 0 0 -15 8
-34 8 -19 12 -37 8 -40 -3 -3 0 -6 6 -6 6 0 9 -6 6 -14 -3 -8 -1 -17 5 -21 6
-3 11 -16 11 -29 0 -12 3 -26 8 -30 4 -4 7 -11 7 -14 1 -13 48 -150 74 -217
24 -60 76 -186 92 -222 11 -24 19 -47 19 -53 0 -5 5 -10 12 -10 6 0 9 -3 5 -6
-3 -4 5 -26 18 -50 14 -24 22 -44 19 -44 -3 0 4 -13 16 -30 12 -16 19 -30 16
-30 -3 0 9 -26 26 -57 17 -32 46 -87 66 -123 19 -36 63 -113 98 -171 35 -59
64 -112 64 -119 0 -6 5 -8 10 -5 6 3 10 -1 10 -9 0 -9 5 -16 10 -16 6 0 10 -5
10 -10 0 -11 97 -160 110 -170 4 -3 20 -25 36 -49 16 -24 34 -51 39 -59 6 -8
17 -23 25 -32 8 -9 26 -31 40 -49 14 -19 32 -42 40 -51 43 -51 50 -61 50 -65
0 -2 10 -14 23 -27 12 -13 49 -54 82 -91 51 -59 198 -217 222 -239 4 -4 42
-40 83 -79 41 -39 95 -88 120 -108 24 -20 59 -49 76 -66 18 -16 47 -41 65 -55
18 -14 41 -33 51 -42 10 -10 20 -18 23 -18 5 0 25 -16 80 -62 18 -16 37 -28
43 -28 6 0 12 -4 14 -8 2 -4 32 -28 68 -52 36 -25 67 -47 70 -50 11 -12 137
-90 145 -90 4 0 15 -8 24 -19 9 -10 26 -21 39 -25 12 -4 22 -12 22 -17 0 -6 4
-8 9 -4 5 3 16 -2 24 -10 9 -8 18 -15 21 -15 3 0 29 -14 58 -32 88 -52 318
-168 333 -168 8 0 15 -4 15 -8 0 -5 18 -15 40 -22 22 -7 40 -17 40 -22 0 -4 3
-7 8 -6 7 1 22 -4 87 -32 22 -10 72 -30 110 -45 39 -14 79 -30 90 -35 32 -13
105 -40 108 -39 3 1 39 -11 62 -21 17 -8 59 -21 75 -25 3 -1 25 -7 50 -15 25
-7 51 -13 58 -13 6 0 12 -3 12 -7 0 -5 52 -19 133 -36 4 -1 8 -2 10 -4 2 -2
17 -6 55 -14 13 -3 31 -7 40 -10 21 -6 66 -16 112 -23 19 -3 37 -8 40 -12 3
-3 14 -7 25 -7 26 -2 84 -11 115 -18 14 -3 43 -8 65 -11 22 -4 54 -8 70 -11
96 -15 239 -30 370 -41 178 -14 728 -7 822 11 10 2 53 7 94 11 41 3 81 8 89
10 8 3 33 7 55 10 22 2 51 7 65 9 14 3 41 8 60 10 19 3 49 8 65 12 17 3 39 7
50 9 11 2 39 9 63 15 24 6 47 8 53 5 5 -4 9 -2 9 3 0 5 6 9 13 9 13 1 33 5
107 24 25 6 52 12 60 14 8 2 16 4 18 5 3 3 12 6 57 15 22 4 45 11 50 15 6 4
39 15 75 24 78 21 282 94 400 142 47 19 88 33 91 32 4 -2 15 5 26 14 10 10 28
19 39 21 32 5 305 142 444 222 72 41 133 75 136 75 3 0 10 5 17 10 17 14 240
160 245 160 2 0 9 6 17 13 7 6 26 21 41 32 74 52 199 149 202 157 2 4 10 8 18
8 8 0 17 7 20 15 3 8 15 17 26 21 11 3 17 8 14 11 -2 3 15 20 40 39 63 48 128
109 284 264 124 124 180 185 287 310 21 24 46 52 56 62 9 10 14 18 11 18 -4 0
14 24 38 53 25 28 86 111 137 182 50 72 95 135 99 140 15 19 142 226 142 232
0 3 8 17 19 31 10 15 40 68 66 117 26 50 58 109 71 133 13 23 24 49 24 57 0 8
5 15 10 15 6 0 10 3 9 8 -2 15 14 52 22 52 5 0 8 3 7 8 -1 4 6 22 15 39 10 18
17 35 18 38 0 3 8 25 19 50 11 25 19 47 19 50 1 3 7 18 15 34 9 16 32 73 52
127 20 55 42 110 47 124 6 14 11 30 12 35 2 17 47 150 55 160 4 6 6 18 5 28
-2 9 1 17 6 17 4 0 6 7 3 15 -4 8 -1 15 7 15 7 0 10 3 7 6 -4 3 2 34 11 70 10
35 16 66 13 69 -3 3 -1 5 5 5 5 0 10 6 10 13 1 15 10 61 17 85 3 9 8 31 11 47
3 17 8 37 10 45 2 8 7 36 11 63 3 26 11 47 16 47 5 0 7 4 4 9 -3 5 -2 31 3 57
5 27 12 74 16 104 4 30 8 57 10 60 2 3 6 34 10 70 4 36 9 74 11 84 5 26 -15
49 -30 37 -7 -6 -18 -6 -26 -1 -7 4 -24 4 -37 -1 -14 -5 -23 -5 -23 1 0 6 -9
6 -23 1 -14 -5 -30 -5 -40 0 -11 7 -17 6 -17 0 0 -7 -8 -7 -25 -1 -15 6 -26 6
-30 -1 -4 -5 -12 -6 -18 -2 -16 10 -48 10 -69 0 -11 -5 -18 -4 -18 3 0 8 -6 8
-20 0 -14 -8 -20 -8 -20 0 0 7 -6 8 -19 0 -14 -7 -22 -7 -26 0 -4 6 -11 7 -18
3 -15 -9 -57 -10 -57 -1 0 4 -11 3 -25 -2 -16 -6 -25 -6 -25 1 0 6 -7 6 -20
-1 -12 -6 -20 -7 -20 -1 0 6 -11 6 -30 1 -19 -5 -30 -5 -30 1 0 6 -7 6 -19 -1
-13 -7 -22 -7 -26 0 -4 7 -13 7 -26 0 -10 -6 -19 -7 -19 -2 0 9 -53 8 -69 -3
-6 -3 -11 -1 -11 5 0 8 -6 8 -20 0 -14 -8 -20 -8 -20 0 0 7 -6 8 -19 0 -14 -7
-22 -7 -26 0 -5 8 -12 7 -22 -2 -9 -7 -17 -13 -17 -12 -18 15 -45 21 -53 13
-8 -8 -13 -7 -17 0 -5 8 -13 8 -26 1 -13 -7 -21 -7 -25 0 -4 6 -13 7 -23 1
-11 -6 -24 -6 -35 0 -11 7 -17 7 -17 0 0 -7 -8 -7 -24 -1 -15 5 -27 5 -34 -2
-6 -6 -12 -6 -16 0 -3 5 -22 6 -46 2 -22 -4 -43 -3 -46 1 -3 5 -14 5 -24 -1
-13 -7 -21 -7 -25 0 -5 8 -11 8 -20 0 -9 -7 -15 -8 -19 -1 -5 7 -15 7 -31 1
-16 -6 -25 -6 -25 1 0 6 -7 6 -19 -1 -13 -7 -22 -7 -26 0 -4 7 -12 7 -25 0
-11 -6 -21 -6 -24 -1 -3 5 -21 5 -41 1 -20 -4 -38 -4 -41 1 -3 5 -13 5 -24 -1
-13 -7 -21 -7 -25 0 -5 8 -11 8 -20 0 -9 -7 -15 -8 -19 -1 -5 7 -15 7 -31 1
-16 -6 -25 -6 -25 1 0 6 -7 6 -19 -1 -13 -7 -22 -7 -26 0 -4 7 -12 7 -25 0
-10 -6 -21 -6 -24 -1 -6 9 -48 7 -65 -4 -6 -3 -11 -1 -11 5 0 8 -6 8 -20 0
-14 -8 -20 -8 -20 0 0 7 -6 8 -19 0 -14 -7 -22 -7 -26 0 -4 6 -11 7 -18 3 -15
-9 -57 -10 -57 -1 0 4 -11 3 -25 -2 -16 -6 -25 -6 -25 1 0 6 -7 6 -20 -1 -12
-6 -20 -7 -20 -1 0 6 -11 6 -30 1 -19 -5 -30 -5 -30 1 0 6 -7 6 -19 -1 -13 -7
-22 -7 -26 0 -4 7 -13 7 -26 0 -10 -6 -19 -7 -19 -2 0 9 -53 8 -69 -3 -6 -3
-11 -1 -11 5 0 8 -6 8 -20 0 -14 -8 -20 -8 -20 0 0 8 -6 8 -20 0 -14 -8 -20
-8 -20 0 0 8 -6 8 -20 0 -14 -8 -20 -8 -20 0 0 8 -6 8 -20 0 -14 -8 -20 -8
-20 0 0 8 -6 8 -20 0 -14 -8 -20 -8 -20 0 0 7 -6 8 -19 0 -14 -7 -22 -7 -26 0
-4 6 -11 7 -18 3 -15 -9 -57 -10 -57 -1 0 4 -11 3 -25 -2 -16 -6 -25 -6 -25 1
0 6 -7 6 -20 -1 -12 -6 -20 -7 -20 -1 0 6 -11 6 -30 1 -19 -5 -30 -5 -30 1 0
6 -7 6 -19 -1 -13 -7 -22 -7 -26 0 -4 7 -13 7 -26 0 -10 -6 -19 -7 -19 -2 0 9
-53 8 -69 -3 -6 -3 -11 -1 -11 5 0 8 -6 8 -20 0 -14 -8 -20 -8 -20 0 0 8 -6 8
-20 0 -14 -8 -20 -8 -20 0 0 6 -5 8 -11 5 -16 -10 -69 -12 -75 -3 -3 4 -14 4
-24 -2 -13 -7 -21 -7 -25 0 -5 8 -11 8 -20 0 -9 -7 -15 -8 -19 -1 -5 7 -15 7
-31 1 -16 -6 -25 -6 -25 1 0 6 -7 6 -19 -1 -13 -7 -22 -7 -26 0 -4 7 -12 7
-25 0 -11 -6 -21 -6 -24 -1 -3 5 -21 5 -41 1 -20 -4 -38 -4 -41 1 -3 5 -13 5
-24 -1 -13 -7 -21 -7 -25 0 -5 8 -11 8 -20 0 -9 -7 -15 -8 -19 -1 -5 7 -15 7
-31 1 -16 -6 -25 -6 -25 1 0 6 -7 6 -19 -1 -13 -7 -22 -7 -26 0 -4 7 -12 7
-25 0 -12 -6 -21 -7 -25 0 -3 5 -15 6 -29 0 -12 -4 -29 -4 -36 0 -8 5 -19 5
-26 -1 -8 -7 -14 -6 -19 1 -4 7 -12 7 -25 0 -13 -7 -21 -7 -25 0 -4 6 -13 7
-23 1 -11 -6 -24 -6 -35 0 -11 7 -17 7 -17 0 0 -7 -8 -7 -25 -1 -15 6 -26 6
-30 -1 -4 -5 -12 -6 -18 -2 -16 10 -48 10 -69 0 -11 -5 -18 -4 -18 3 0 8 -6 8
-20 0 -14 -8 -20 -8 -20 0 0 7 -6 8 -19 0 -14 -7 -22 -7 -26 0 -4 6 -11 7 -18
3 -15 -9 -57 -10 -57 -1 0 4 -11 3 -25 -2 -16 -6 -25 -6 -25 1 0 6 -7 6 -20
-1 -12 -6 -20 -7 -20 -1 0 6 -11 6 -30 1 -19 -5 -30 -5 -30 1 0 6 -7 6 -19 -1
-13 -7 -22 -7 -26 0 -4 7 -13 7 -26 0 -10 -6 -19 -7 -19 -2 0 9 -53 8 -69 -3
-6 -3 -11 -1 -11 5 0 8 -6 8 -20 0 -14 -8 -20 -8 -20 0 0 7 -6 8 -19 0 -14 -7
-22 -7 -26 0 -5 8 -12 7 -22 -2 -9 -7 -17 -13 -17 -12 -18 15 -45 21 -53 13
-8 -8 -13 -7 -17 0 -5 8 -13 8 -26 1 -13 -7 -21 -7 -25 0 -4 6 -13 7 -23 1
-11 -6 -24 -6 -35 0 -11 7 -17 7 -17 0 0 -7 -8 -7 -24 -1 -15 5 -27 5 -34 -2
-6 -6 -12 -6 -16 0 -3 5 -22 6 -46 2 -22 -4 -43 -3 -46 1 -3 5 -14 5 -24 -1
-13 -7 -21 -7 -25 0 -5 8 -11 8 -20 0 -9 -7 -15 -8 -19 -1 -5 7 -15 7 -31 1
-16 -6 -25 -6 -25 1 0 6 -7 6 -19 -1 -13 -7 -22 -7 -26 0 -4 7 -12 7 -25 0
-11 -6 -21 -6 -24 -1 -3 5 -21 5 -41 1 -20 -4 -38 -4 -41 1 -3 5 -13 5 -24 -1
-13 -7 -21 -7 -25 0 -5 8 -11 8 -20 0 -9 -7 -15 -8 -19 -1 -5 7 -15 7 -31 1
-16 -6 -25 -6 -25 1 0 6 -7 6 -19 -1 -13 -7 -22 -7 -26 0 -4 7 -12 7 -25 0
-10 -6 -21 -6 -24 -1 -6 9 -48 7 -65 -4 -6 -3 -11 -1 -11 5 0 8 -6 8 -20 0
-14 -8 -20 -8 -20 0 0 7 -6 8 -19 0 -14 -7 -22 -7 -26 0 -4 6 -11 7 -18 3 -15
-9 -57 -10 -57 -1 0 4 -11 3 -25 -2 -16 -6 -25 -6 -25 1 0 6 -7 6 -20 -1 -12
-6 -20 -7 -20 -1 0 6 -11 6 -30 1 -19 -5 -30 -5 -30 1 0 6 -7 6 -19 -1 -13 -7
-22 -7 -26 0 -4 7 -13 7 -26 0 -10 -6 -19 -7 -19 -2 0 9 -53 8 -69 -3 -6 -3
-11 -1 -11 5 0 8 -6 8 -20 0 -14 -8 -20 -8 -20 0 0 8 -6 8 -20 0 -14 -8 -20
-8 -20 0 0 8 -6 8 -20 0 -14 -8 -20 -8 -20 0 0 8 -6 8 -20 0 -14 -8 -20 -8
-20 0 0 8 -6 8 -20 0 -14 -8 -20 -8 -20 0 0 7 -6 8 -19 0 -14 -7 -22 -7 -26 0
-4 6 -11 7 -18 3 -15 -9 -57 -10 -57 -1 0 4 -11 3 -25 -2 -16 -6 -25 -6 -25 1
0 6 -7 6 -20 -1 -12 -6 -20 -7 -20 -1 0 6 -11 6 -30 1 -19 -5 -30 -5 -30 1 0
6 -7 6 -19 -1 -13 -7 -22 -7 -26 0 -4 7 -13 7 -26 0 -10 -6 -19 -7 -19 -2 0 9
-53 8 -69 -3 -6 -3 -11 -1 -11 5 0 8 -6 8 -20 0 -14 -8 -20 -8 -20 0 0 8 -6 8
-20 0 -14 -8 -20 -8 -20 0 0 6 -5 8 -11 5 -16 -10 -69 -12 -75 -3 -3 4 -14 4
-24 -2 -13 -7 -21 -7 -25 0 -5 8 -11 8 -20 0 -9 -7 -15 -8 -19 -1 -5 7 -15 7
-31 1 -16 -6 -25 -6 -25 1 0 6 -7 6 -19 -1 -13 -7 -22 -7 -26 0 -4 7 -12 7
-25 0 -11 -6 -21 -6 -24 -1 -3 5 -21 5 -41 1 -20 -4 -38 -4 -41 1 -3 5 -13 5
-24 -1 -13 -7 -21 -7 -25 0 -5 8 -11 8 -20 0 -9 -7 -15 -8 -19 -1 -5 7 -15 7
-31 1 -16 -6 -25 -6 -25 1 0 6 -7 6 -19 -1 -13 -7 -22 -7 -26 0 -4 7 -12 7
-25 0 -12 -6 -21 -7 -25 0 -3 5 -15 6 -29 0 -12 -4 -29 -4 -36 0 -8 5 -19 5
-26 -1 -8 -7 -14 -6 -19 1 -4 7 -12 7 -25 0 -13 -7 -21 -7 -25 0 -4 6 -13 7
-23 1 -11 -6 -24 -6 -35 0 -11 7 -17 7 -17 0 0 -7 -8 -7 -25 -1 -15 6 -26 6
-30 -1 -4 -5 -12 -6 -18 -2 -16 10 -48 10 -69 0 -11 -5 -18 -4 -18 3 0 8 -6 8
-20 0 -14 -8 -20 -8 -20 0 0 7 -6 8 -19 0 -14 -7 -22 -7 -26 0 -4 6 -11 7 -18
3 -15 -9 -57 -10 -57 -1 0 4 -11 3 -25 -2 -16 -6 -25 -6 -25 1 0 6 -7 6 -20
-1 -12 -6 -20 -7 -20 -1 0 6 -11 6 -30 1 -19 -5 -30 -5 -30 1 0 6 -7 6 -19 -1
-13 -7 -22 -7 -26 0 -4 7 -13 7 -26 0 -10 -6 -19 -7 -19 -2 0 9 -53 8 -69 -3
-6 -3 -11 -1 -11 5 0 8 -6 8 -20 0 -14 -8 -20 -8 -20 0 0 7 -6 8 -19 0 -14 -7
-22 -7 -26 0 -5 8 -12 7 -22 -2 -9 -7 -19 -11 -22 -10 -30 18 -39 20 -48 11
-8 -8 -13 -7 -17 0 -5 8 -13 8 -26 1 -13 -7 -21 -7 -25 0 -4 6 -13 7 -23 1
-11 -6 -24 -6 -35 0 -11 7 -17 7 -17 0 0 -7 -8 -7 -24 -1 -15 5 -27 5 -34 -2
-6 -6 -12 -6 -16 0 -3 5 -22 6 -46 2 -22 -4 -43 -3 -46 1 -3 5 -14 5 -24 -1
-13 -7 -21 -7 -25 0 -5 8 -11 8 -20 0 -9 -7 -15 -8 -19 -1 -5 7 -15 7 -31 1
-16 -6 -25 -6 -25 1 0 6 -7 6 -19 -1 -13 -7 -22 -7 -26 0 -4 7 -12 7 -25 0
-11 -6 -21 -6 -24 -1 -3 5 -21 5 -41 1 -20 -4 -38 -4 -41 1 -3 5 -13 5 -24 -1
-13 -7 -21 -7 -25 0 -5 8 -11 8 -20 0 -9 -7 -15 -8 -19 -1 -5 7 -15 7 -31 1
-16 -6 -25 -6 -25 1 0 6 -7 6 -19 -1 -13 -7 -22 -7 -26 0 -4 7 -12 7 -25 0
-10 -6 -21 -6 -24 -1 -6 9 -48 7 -65 -4 -6 -3 -11 -1 -11 5 0 8 -6 8 -20 0
-14 -8 -20 -8 -20 0 0 8 -6 8 -20 0 -14 -8 -20 -8 -20 0 0 7 -7 7 -22 -1 -13
-7 -23 -12 -23 -12 0 0 -10 5 -22 11 -14 8 -24 9 -28 2 -4 -7 -13 -7 -26 0
-13 8 -19 7 -19 0 0 -7 -6 -8 -19 -1 -14 8 -22 7 -30 -2z"/>
</g>
</svg>
